# xmcd
#
# Track frame offsets: 
#        150
#        14823
#        32058
#        48787
#        63430
#        79587
#        98959
#        116667
#        133790
#        150782
#        170055
#        187064
#        205246
#        220247
#        239256
#
# Disc length: 3461 seconds
#
# Revision: 0
# Processed by: cddbd v1.5.2PL0 Copyright (c) Steve Scherf et al.
# Submitted via: ExactAudioCopy v0.99pb5
#
DISCID=cf0d830f
DTITLE=Amadou and Mariam - Welcome to Mali
DYEAR=2009
DGENRE=African Blues
TTITLE0=Sabali
TTITLE1=Ce n'est pas bon
TTITLE2=Magossa
TTITLE3=Djama
TTITLE4=Djuru
TTITLE5=Je te kiffe
TTITLE6=Masiteladi
TTITLE7=Africa
TTITLE8=Compagnon de la vie
TTITLE9=Unissons nous
TTITLE10=Bozos
TTITLE11=I Follow You (Nia na fin)
TTITLE12=Welcome to Mali
TTITLE13=Batoma
TTITLE14=Sekebe
EXTD=
EXTT0=
EXTT1=
EXTT2=
EXTT3=
EXTT4=
EXTT5=
EXTT6=
EXTT7=
EXTT8=
EXTT9=
EXTT10=
EXTT11=
EXTT12=
EXTT13=
EXTT14=
PLAYORDER=
